<svg width="32" height="32" version="1.1" viewBox="0 0 32 32" xmlns="http://www.w3.org/2000/svg"><path d="m15.856 0.0014279a15.999 16.543 89.996 0 0-11.936 5.1457l-3.9204-2.4169 0.02081 13.27 12.44-5.5904-3.4293-2.111a13.044 13.488 89.996 0 1 15.499-2.8837 13.044 13.488 89.996 0 1 6.457 6.1458l1.0134 0.10866a15.999 16.543 89.996 0 0-8.9541-10.181 15.999 16.543 89.996 0 0-7.1895-1.4872zm16.123 16-12.44 5.5884 3.4293 2.111a13.044 13.488 89.996 0 1-15.499 2.8837 13.044 13.488 89.996 0 1-6.457-6.1458l-1.0134-0.10866a15.999 16.543 89.996 0 0 8.9541 10.181 15.999 16.543 89.996 0 0 19.126-3.6585l3.9204 2.4169z" style="stroke-linecap:round;stroke-linejoin:round;stroke-width:5"/></svg>
